<svg width="426" height="370" viewBox="0 0 426 370" fill="none" xmlns="http://www.w3.org/2000/svg">
<g clip-path="url(#clip0_1_152)">
<path d="M394.424 342.914L405.899 339.271C407.329 333.108 407.234 326.689 405.623 320.571C401.012 330.829 387.487 333.342 379.78 341.53C377.396 344.102 375.621 347.177 374.586 350.529C373.552 353.881 373.284 357.423 373.803 360.892L371.389 369.088C377.028 368.606 382.495 366.906 387.414 364.106C392.333 361.306 396.587 357.472 399.883 352.868C401.706 350.267 403.195 347.447 404.314 344.474C399.42 343.983 394.424 342.914 394.424 342.914Z" fill="#F2F2F2"/>
<path d="M382.162 327.759L390.809 319.378C389.343 313.223 386.397 307.52 382.228 302.764C382.673 314.002 371.687 322.288 368.438 333.055C367.451 336.421 367.233 339.967 367.801 343.428C368.368 346.89 369.707 350.18 371.718 353.053L373.21 361.466C378.042 358.518 382.178 354.557 385.333 349.855C388.488 345.154 390.586 339.824 391.485 334.232C391.957 331.091 392.033 327.902 391.709 324.741C387.111 326.486 382.162 327.759 382.162 327.759Z" fill="#F2F2F2"/>
<path d="M324.678 24.5668H1.25822C0.921829 24.5597 0.601624 24.4209 0.366237 24.1804C0.13085 23.9398 -0.000976562 23.6165 -0.000976562 23.2798C-0.000976562 22.9431 0.13085 22.6198 0.366237 22.3792C0.601624 22.1386 0.921829 21.9999 1.25822 21.9927H324.678C325.015 21.9999 325.335 22.1386 325.57 22.3792C325.805 22.6198 325.937 22.9431 325.937 23.2798C325.937 23.6165 325.805 23.9398 325.57 24.1804C325.335 24.4209 325.015 24.5597 324.678 24.5668Z" fill="#029241"/>
<path d="M23.2738 15.4214C27.4366 15.4214 30.8112 11.9692 30.8112 7.71071C30.8112 3.4522 27.4366 0 23.2738 0C19.111 0 15.7363 3.4522 15.7363 7.71071C15.7363 11.9692 19.111 15.4214 23.2738 15.4214Z" fill="#029241"/>
<path d="M49.3121 15.4214C53.4749 15.4214 56.8496 11.9692 56.8496 7.71071C56.8496 3.4522 53.4749 0 49.3121 0C45.1493 0 41.7747 3.4522 41.7747 7.71071C41.7747 11.9692 45.1493 15.4214 49.3121 15.4214Z" fill="#029241"/>
<path d="M75.3507 15.4214C79.5135 15.4214 82.8881 11.9692 82.8881 7.71071C82.8881 3.4522 79.5135 0 75.3507 0C71.1879 0 67.8132 3.4522 67.8132 7.71071C67.8132 11.9692 71.1879 15.4214 75.3507 15.4214Z" fill="#029241"/>
<path d="M309.001 1.91118H290.504C290.138 1.91848 289.788 2.06935 289.532 2.33138C289.275 2.59341 289.131 2.94571 289.131 3.31264C289.131 3.67958 289.275 4.03188 289.532 4.29391C289.788 4.55594 290.138 4.7068 290.504 4.71411H309.001C309.367 4.7068 309.716 4.55594 309.973 4.29391C310.23 4.03188 310.374 3.67958 310.374 3.31264C310.374 2.94571 310.23 2.59341 309.973 2.33138C309.716 2.06935 309.367 1.91848 309.001 1.91118Z" fill="#029241"/>
<path d="M309.001 7.17186H290.504C290.138 7.17912 289.788 7.32997 289.532 7.592C289.275 7.85404 289.131 8.20636 289.131 8.57332C289.131 8.94029 289.275 9.29262 289.532 9.55466C289.788 9.81669 290.138 9.96753 290.504 9.97479H309.001C309.367 9.96753 309.716 9.81669 309.973 9.55466C310.23 9.29262 310.374 8.94029 310.374 8.57332C310.374 8.20636 310.23 7.85404 309.973 7.592C309.716 7.32997 309.367 7.17912 309.001 7.17186Z" fill="#029241"/>
<path d="M309.001 12.4256H290.504C290.138 12.4329 289.788 12.5837 289.532 12.8458C289.275 13.1078 289.131 13.4601 289.131 13.8271C289.131 14.1941 289.275 14.5464 289.532 14.8084C289.788 15.0705 290.138 15.2213 290.504 15.2286H309.001C309.367 15.2213 309.716 15.0705 309.973 14.8084C310.23 14.5464 310.374 14.1941 310.374 13.8271C310.374 13.4601 310.23 13.1078 309.973 12.8458C309.716 12.5837 309.367 12.4329 309.001 12.4256Z" fill="#029241"/>
<path d="M25.0549 76.8578C30.2014 76.8578 34.3735 72.6828 34.3735 67.5328C34.3735 62.3828 30.2014 58.2078 25.0549 58.2078C19.9084 58.2078 15.7363 62.3828 15.7363 67.5328C15.7363 72.6828 19.9084 76.8578 25.0549 76.8578Z" fill="#E6E7E8"/>
<path d="M262.354 88.1815H18.5112C17.7753 88.1815 17.0694 87.889 16.5491 87.3682C16.0287 86.8475 15.7363 86.1412 15.7363 85.4047C15.7363 84.6683 16.0287 83.962 16.5491 83.4412C17.0694 82.9205 17.7753 82.6279 18.5112 82.6279H262.354C263.089 82.6279 263.795 82.9205 264.316 83.4412C264.836 83.962 265.128 84.6683 265.128 85.4047C265.128 86.1412 264.836 86.8475 264.316 87.3682C263.795 87.889 263.089 88.1815 262.354 88.1815Z" fill="#E6E7E8"/>
<path d="M198.402 99.154H18.5114C17.7754 99.154 17.0695 98.8615 16.5491 98.3407C16.0287 97.8199 15.7363 97.1136 15.7363 96.3771C15.7363 95.6406 16.0287 94.9343 16.5491 94.4135C17.0695 93.8927 17.7754 93.6002 18.5114 93.6002H198.402C199.138 93.6002 199.844 93.8927 200.364 94.4135C200.884 94.9343 201.177 95.6406 201.177 96.3771C201.177 97.1136 200.884 97.8199 200.364 98.3407C199.844 98.8615 199.138 99.154 198.402 99.154Z" fill="#E6E7E8"/>
<path d="M25.0549 222.406C30.2014 222.406 34.3735 218.231 34.3735 213.081C34.3735 207.931 30.2014 203.756 25.0549 203.756C19.9084 203.756 15.7363 207.931 15.7363 213.081C15.7363 218.231 19.9084 222.406 25.0549 222.406Z" fill="#E6E7E8"/>
<path d="M262.354 233.73H18.5113C18.1465 233.73 17.7852 233.659 17.448 233.52C17.1108 233.38 16.8044 233.176 16.5462 232.918C16.2881 232.66 16.0833 232.354 15.9436 232.017C15.8039 231.679 15.7319 231.318 15.7319 230.953C15.7319 230.588 15.8039 230.226 15.9436 229.889C16.0833 229.552 16.2881 229.246 16.5462 228.988C16.8044 228.73 17.1108 228.525 17.448 228.386C17.7852 228.247 18.1465 228.176 18.5113 228.176H262.354C263.127 228.219 263.856 228.55 264.398 229.103C264.94 229.657 265.255 230.393 265.283 231.167C265.26 231.528 265.166 231.881 265.006 232.206C264.846 232.531 264.624 232.82 264.351 233.059C264.079 233.297 263.762 233.479 263.419 233.594C263.077 233.709 262.714 233.755 262.354 233.73Z" fill="#E6E7E8"/>
<path d="M198.402 244.702H18.5114C17.7754 244.702 17.0695 244.41 16.5491 243.889C16.0287 243.368 15.7363 242.662 15.7363 241.925C15.7363 241.189 16.0287 240.482 16.5491 239.962C17.0695 239.441 17.7754 239.148 18.5114 239.148H198.402C199.138 239.148 199.844 239.441 200.364 239.962C200.884 240.482 201.177 241.189 201.177 241.925C201.177 242.662 200.884 243.368 200.364 243.889C199.844 244.41 199.138 244.702 198.402 244.702Z" fill="#E6E7E8"/>
<path d="M25.0549 144.146C30.2014 144.146 34.3735 139.971 34.3735 134.821C34.3735 129.671 30.2014 125.496 25.0549 125.496C19.9084 125.496 15.7363 129.671 15.7363 134.821C15.7363 139.971 19.9084 144.146 25.0549 144.146Z" fill="#E6E7E8"/>
<path d="M262.354 155.469H18.5112C17.7753 155.469 17.0694 155.177 16.5491 154.656C16.0287 154.135 15.7363 153.429 15.7363 152.693C15.7363 151.956 16.0287 151.25 16.5491 150.729C17.0694 150.208 17.7753 149.916 18.5112 149.916H262.354C263.089 149.916 263.795 150.208 264.316 150.729C264.836 151.25 265.128 151.956 265.128 152.693C265.128 153.429 264.836 154.135 264.316 154.656C263.795 155.177 263.089 155.469 262.354 155.469Z" fill="#E6E7E8"/>
<path d="M228.397 166.442H18.5114C17.7754 166.442 17.0695 166.149 16.5491 165.628C16.0287 165.108 15.7363 164.401 15.7363 163.665C15.7363 162.928 16.0287 162.222 16.5491 161.701C17.0695 161.181 17.7754 160.888 18.5114 160.888H228.397C229.133 160.888 229.839 161.181 230.359 161.701C230.88 162.222 231.172 162.928 231.172 163.665C231.172 164.401 230.88 165.108 230.359 165.628C229.839 166.149 229.133 166.442 228.397 166.442Z" fill="#E6E7E8"/>
<path d="M214.151 177.414H18.5114C17.7754 177.414 17.0695 177.122 16.5491 176.601C16.0287 176.08 15.7363 175.374 15.7363 174.637C15.7363 173.901 16.0287 173.195 16.5491 172.674C17.0695 172.153 17.7754 171.86 18.5114 171.86H214.151C214.887 171.86 215.593 172.153 216.114 172.674C216.634 173.195 216.926 173.901 216.926 174.637C216.926 175.374 216.634 176.08 216.114 176.601C215.593 177.122 214.887 177.414 214.151 177.414Z" fill="#E6E7E8"/>
<path d="M218.199 300.176C256.312 300.176 287.208 269.258 287.208 231.12C287.208 192.981 256.312 162.064 218.199 162.064C180.087 162.064 149.19 192.981 149.19 231.12C149.19 269.258 180.087 300.176 218.199 300.176Z" fill="#029241"/>
<path d="M218.105 255.214C223.549 255.214 227.963 250.797 227.963 245.348C227.963 239.9 223.549 235.483 218.105 235.483C212.66 235.483 208.246 239.9 208.246 245.348C208.246 250.797 212.66 255.214 218.105 255.214Z" fill="#029241"/>
<path d="M218.104 249.902C220.617 249.902 222.655 247.863 222.655 245.348C222.655 242.834 220.617 240.795 218.104 240.795C215.592 240.795 213.554 242.834 213.554 245.348C213.554 247.863 215.592 249.902 218.104 249.902Z" fill="#029241"/>
<path d="M236.405 267.309H199.994C196.389 267.305 192.932 265.87 190.383 263.319C187.834 260.768 186.4 257.309 186.396 253.701V236.996C186.4 233.388 187.834 229.929 190.383 227.378C192.932 224.827 196.389 223.392 199.994 223.388H236.405C240.01 223.392 243.466 224.827 246.016 227.378C248.565 229.929 249.999 233.388 250.003 236.996V253.701C249.999 257.309 248.565 260.768 246.016 263.319C243.466 265.87 240.01 267.305 236.405 267.309ZM199.994 224.812C196.766 224.816 193.672 226.101 191.389 228.385C189.107 230.669 187.823 233.766 187.819 236.996V253.701C187.823 256.931 189.107 260.028 191.389 262.312C193.672 264.596 196.766 265.88 199.994 265.884H236.405C239.632 265.88 242.727 264.596 245.009 262.312C247.292 260.028 248.576 256.931 248.579 253.701V236.996C248.576 233.766 247.292 230.669 245.009 228.385C242.727 226.101 239.632 224.816 236.405 224.812L199.994 224.812Z" fill="white"/>
<path d="M197.838 258.241H230.156C231.833 258.241 233.494 257.91 235.044 257.268C236.594 256.625 238.002 255.684 239.188 254.497C240.374 253.31 241.315 251.901 241.957 250.35C242.599 248.799 242.929 247.137 242.929 245.458V231.478C242.927 229.928 242.641 228.391 242.087 226.943C243.663 228.131 244.943 229.67 245.824 231.437C246.705 233.204 247.163 235.152 247.163 237.127V251.107C247.163 252.786 246.833 254.448 246.191 255.999C245.549 257.55 244.608 258.959 243.422 260.146C242.236 261.333 240.828 262.274 239.278 262.917C237.728 263.559 236.067 263.89 234.39 263.89H202.072C199.482 263.888 196.954 263.099 194.823 261.626C192.692 260.152 191.059 258.066 190.141 255.642C192.353 257.328 195.057 258.241 197.838 258.241Z" fill="#029241"/>
<path d="M296.806 360.864L288.865 360.864L285.087 330.211L296.808 330.212L296.806 360.864Z" fill="#A0616A"/>
<path d="M297.086 369.154L272.665 369.153V368.844C272.665 366.322 273.667 363.902 275.449 362.119C277.232 360.335 279.649 359.333 282.17 359.333L286.631 355.946L294.954 359.333L297.086 359.333L297.086 369.154Z" fill="#11321F"/>
<path d="M352.997 360.864L360.938 360.864L364.716 330.211L352.995 330.212L352.997 360.864Z" fill="#A0616A"/>
<path d="M352.717 369.154L377.138 369.153V368.844C377.138 366.322 376.136 363.902 374.354 362.119C372.571 360.335 370.153 359.333 367.633 359.333L363.171 355.946L354.848 359.333L352.717 359.333L352.717 369.154Z" fill="#11321F"/>
<path d="M284.737 307.686C284.854 305.937 285.787 296.264 285.787 296.264L288.021 275.751L291.958 221.374L292.214 217.814L312.837 213.853L326.931 207.091L343.684 212.45L356.728 217.345C356.728 217.345 356.75 219.441 356.851 221.972C356.985 225.286 357.219 229.348 357.778 230.404C358.71 232.271 358.476 242.29 358.476 242.29C358.476 242.29 359.403 262.675 360.57 264.91C361.737 267.145 361.972 271.8 361.62 272.733C361.268 273.666 362.787 298.147 362.787 298.147C362.787 298.147 366.685 341.47 364.239 348.002C361.794 354.534 352.551 350.255 352.551 350.255C352.551 350.255 352.998 348.512 350.317 347.69C347.637 346.869 339.473 285.44 339.473 285.44C339.473 285.44 337.954 272.845 336.558 269.235C335.162 265.625 333.878 255.483 333.878 255.483C333.878 255.483 325.256 238.697 325.144 234.964C325.144 234.964 324.016 231.471 322.95 235.316C321.883 239.161 318.739 248.369 318.739 248.369L315.673 259.68L312.066 276.578L309.732 290.805C309.732 290.805 306.236 309.686 305.678 310.502C305.119 311.318 305.678 328.568 305.678 328.568C305.678 328.568 302.975 343.259 299.155 345.824C295.336 348.389 285.216 345.865 285.216 345.865C285.216 345.865 284.62 309.435 284.737 307.686Z" fill="#11321F"/>
<path d="M293.535 168.221L298.12 182.04L292.463 188.779L294.954 191.344L293.116 194.97L288.325 232.98L314.593 242.949L323.438 231.851L330.413 242.949L360.808 235.517L353.056 187.047V183.878L350.868 177.759V164.806L356.647 126.249L339.398 120.203L331.15 113.671L328.481 122.858L317.117 120.835L316.821 113.933L308.127 122.154L300.805 124.243L292.039 126.249L290.922 129.043L293.155 128.485L292.792 164.835L293.535 168.221Z" fill="#11321F"/>
<path d="M285.684 218.783L290.095 176.052L291.26 158.465L278.912 156.231C278.912 156.231 279.401 168.806 277.783 175.901C276.187 182.902 277.571 217.845 277.67 218.78C276.763 219.591 276.124 220.659 275.837 221.842C275.55 223.025 275.628 224.267 276.062 225.404C276.496 226.542 277.264 227.521 278.266 228.211C279.268 228.902 280.455 229.272 281.672 229.273C282.888 229.273 284.076 228.904 285.079 228.215C286.081 227.525 286.851 226.547 287.285 225.41C287.72 224.273 287.8 223.031 287.514 221.847C287.228 220.664 286.59 219.596 285.684 218.783Z" fill="#A0616A"/>
<path d="M273.639 184.906L277.073 185.616L288.855 188.058L289.509 188.192L290.899 182.66L292.513 180.939L295.584 164.834L295.746 163.996L300.387 154.072L303.597 124.243L291.658 126.389C291.597 126.451 291.541 126.518 291.485 126.585C289.771 128.529 288.548 131.234 286.549 133.955C280.043 142.812 275.051 164.331 275.247 176.122C275.253 176.312 275.057 176.519 274.823 176.731C273.715 177.75 272.993 179.119 272.778 180.608C272.562 182.097 272.866 183.615 273.639 184.906Z" fill="#11321F"/>
<path d="M362.444 218.783L358.032 176.052L356.868 158.465L369.216 156.231C369.216 156.231 368.727 168.806 370.344 175.901C371.941 182.902 370.556 217.845 370.457 218.78C371.364 219.591 372.004 220.659 372.291 221.842C372.578 223.025 372.499 224.267 372.066 225.404C371.632 226.542 370.863 227.521 369.862 228.211C368.86 228.902 367.672 229.272 366.456 229.273C365.239 229.273 364.051 228.904 363.049 228.214C362.046 227.525 361.277 226.547 360.842 225.41C360.407 224.273 360.328 223.031 360.614 221.847C360.9 220.664 361.538 219.596 362.444 218.783Z" fill="#A0616A"/>
<path d="M374.489 184.906L371.054 185.616L359.272 188.058L358.618 188.192L357.228 182.66L355.614 180.939L352.543 164.834L352.381 163.996L347.74 154.072L348.801 124.243L356.469 126.389C356.53 126.451 356.586 126.518 356.642 126.585C358.356 128.529 359.579 131.234 361.578 133.955C368.084 142.812 373.076 164.331 372.88 176.122C372.875 176.312 373.07 176.519 373.305 176.731C374.412 177.75 375.134 179.119 375.35 180.608C375.565 182.097 375.261 183.615 374.489 184.906Z" fill="#11321F"/>
<path d="M311.211 128.657L316.821 113.933L331.15 113.671L335.905 128.657L352.995 224.193C352.995 224.193 300.637 238.784 301.169 221.245C301.727 202.805 304.246 178.31 304.246 178.31L311.211 128.657Z" fill="#029241"/>
<path d="M323.665 109.815C332.988 109.815 340.545 102.253 340.545 92.9241C340.545 83.5954 332.988 76.033 323.665 76.033C314.343 76.033 306.786 83.5954 306.786 92.9241C306.786 102.253 314.343 109.815 323.665 109.815Z" fill="#A0616A"/>
<path d="M305.79 80.6706C308.538 77.6775 311.976 72.1987 322.387 69.898C335.251 67.0551 341.33 78.6845 338.086 78.8751C347.572 81.7498 341.479 101.395 338.759 99.7472C338.736 99.7309 338.713 99.7134 338.692 99.6947C337.229 98.6169 336.001 97.2519 335.084 95.6832C334.166 94.1146 333.577 92.3751 333.354 90.5712L332.838 85.9225C332.764 89.7048 328.901 90.2052 324.954 88.8122C325.188 87.9829 325.633 87.2288 326.246 86.6244C326.86 86.0199 327.62 85.586 328.453 85.3654C325.701 87.8613 322.206 89.383 318.506 89.6962C318.7 88.7491 319.094 87.8546 319.662 87.0726C320.23 86.2906 320.958 85.6392 321.799 85.1623L321.643 85.0091C320.102 86.3098 318.332 87.3124 316.424 87.9659C314.249 88.5899 311.642 88.2523 310.151 86.5481C309.75 86.0778 309.447 85.5318 309.26 84.9423C309.582 87.9377 307.574 91.3571 306.015 90.77C304.717 90.5177 303.961 82.6631 305.79 80.6706Z" fill="#11321F"/>
<path d="M426 369.152C426 369.264 425.979 369.374 425.936 369.477C425.894 369.58 425.831 369.674 425.753 369.752C425.674 369.831 425.58 369.894 425.477 369.936C425.374 369.979 425.264 370 425.153 370H225.609C225.384 370 225.169 369.911 225.01 369.752C224.851 369.593 224.762 369.377 224.762 369.152C224.762 368.927 224.851 368.712 225.01 368.553C225.169 368.394 225.384 368.305 225.609 368.305H425.153C425.264 368.304 425.374 368.326 425.477 368.368C425.58 368.411 425.674 368.473 425.753 368.552C425.831 368.631 425.894 368.724 425.936 368.827C425.979 368.93 426 369.041 426 369.152Z" fill="#CCCCCC"/>
<path d="M218.76 193.677C212.01 193.677 206.077 196.735 202.718 201.324C206.309 198.709 210.645 197.317 215.086 197.353C225.538 197.353 234.042 204.68 234.042 213.685V221.171H237.715V210.009C237.715 201.004 229.212 193.677 218.76 193.677Z" fill="#029241"/>
<path d="M240.24 225.002H196.159V212.024C196.159 201.553 206.046 193.034 218.199 193.034C230.352 193.034 240.24 201.553 240.24 212.024V225.002ZM197.583 223.578H238.816V212.024C238.816 202.338 229.567 194.459 218.199 194.459C206.831 194.459 197.583 202.338 197.583 212.024V223.578Z" fill="white"/>
<path d="M229.489 220.048H206.91C205.894 220.046 204.921 219.642 204.202 218.923C203.484 218.204 203.08 217.23 203.079 216.213V211.049C203.079 203.847 209.862 197.989 218.199 197.989C226.537 197.989 233.32 203.847 233.32 211.049V216.213C233.319 217.23 232.915 218.204 232.196 218.923C231.478 219.642 230.504 220.046 229.489 220.048ZM218.199 199.413C210.647 199.413 204.503 204.633 204.503 211.049V216.213C204.504 216.852 204.757 217.465 205.209 217.916C205.66 218.368 206.272 218.622 206.91 218.623H229.489C230.127 218.622 230.739 218.368 231.19 217.916C231.641 217.465 231.895 216.852 231.896 216.213V211.049C231.896 204.633 225.752 199.413 218.199 199.413Z" fill="white"/>
</g>
<defs>
<clipPath id="clip0_1_152">
<rect width="426" height="370" fill="white"/>
</clipPath>
</defs>
</svg>
